<svg aria-hidden="true" style="position: absolute; width: 0; height: 0; overflow: hidden;" version="1.1" xmlns="http://www.w3.org/2000/svg" xmlns:xlink="http://www.w3.org/1999/xlink">
<defs>
<symbol id="icon-analytics" viewBox="0 0 30 32">
<path fill="#fff" d="M1.519 16.707c0 1.031 0.839 1.869 1.869 1.869s1.869-0.839 1.869-1.869c0-0.138-0.016-0.273-0.044-0.403l2.685-1.345c0.343 0.398 0.85 0.65 1.415 0.65 1.45 0 2.348-1.588 1.603-2.829l3.365-3.371c0.772 0.462 1.772 0.309 2.372-0.386l2.685 1.345c-0.259 1.173 0.639 2.272 1.825 2.272 1.616 0 2.471-1.926 1.384-3.124l3.917-5.886c1.218 0.433 2.493-0.478 2.493-1.762-0-1.031-0.839-1.869-1.869-1.869s-1.869 0.839-1.869 1.869c0 0.483 0.184 0.923 0.485 1.255l-3.917 5.886c-0.718-0.255-1.527-0.050-2.039 0.542l-2.685-1.345c0.029-0.13 0.044-0.265 0.044-0.403 0-1.031-0.839-1.869-1.869-1.869-1.449 0-2.349 1.588-1.603 2.829l-3.365 3.371c-1.393-0.834-3.136 0.403-2.782 2.008l-2.685 1.345c-1.126-1.304-3.284-0.511-3.284 1.22zM27.088 0.913c0.527 0 0.956 0.429 0.956 0.956s-0.429 0.956-0.956 0.956c-0.527 0-0.956-0.429-0.956-0.956s0.429-0.956 0.956-0.956zM21.163 9.816c0.527 0 0.956 0.429 0.956 0.956s-0.429 0.956-0.956 0.956c-0.527 0-0.956-0.429-0.956-0.956s0.429-0.956 0.956-0.956zM15.238 6.849c0.527 0 0.956 0.429 0.956 0.956s-0.429 0.956-0.956 0.956c-0.527 0-0.956-0.429-0.956-0.956s0.429-0.956 0.956-0.956zM9.313 12.783c0.527 0 0.956 0.429 0.956 0.956s-0.429 0.956-0.956 0.956c-0.527 0-0.956-0.429-0.956-0.956s0.429-0.956 0.956-0.956zM3.388 17.662c-0.527 0-0.956-0.429-0.956-0.956s0.429-0.956 0.956-0.956 0.956 0.429 0.956 0.956c0 0.527-0.429 0.956-0.956 0.956z"></path>
<path fill="#fff" d="M30.019 30.268h-0.565v-10.037c0-0.252-0.204-0.457-0.457-0.457s-0.457 0.204-0.457 0.457v10.037h-2.905v-22.756h2.905v10.587c0 0.252 0.204 0.457 0.457 0.457s0.457-0.204 0.457-0.457v-10.662c0-0.462-0.376-0.839-0.839-0.839h-3.055c-0.462 0-0.839 0.376-0.839 0.839v22.83h-1.192v-13.886c0-0.462-0.376-0.839-0.839-0.839h-0.462c-0.252 0-0.457 0.204-0.457 0.457s0.204 0.457 0.457 0.457h0.387v13.811h-2.905v-13.811h0.387c0.252 0 0.457-0.204 0.457-0.457s-0.204-0.457-0.457-0.457h-0.462c-0.462 0-0.839 0.376-0.839 0.839v13.886h-1.192v-16.88c0-0.462-0.376-0.839-0.839-0.839h-3.055c-0.462 0-0.839 0.376-0.839 0.839v16.88h-1.192v-10.919c0-0.462-0.376-0.839-0.839-0.839h-3.055c-0.463 0-0.839 0.376-0.839 0.839v10.919h-1.192v-7.951c0-0.462-0.376-0.839-0.839-0.839h-3.055c-0.462 0-0.839 0.376-0.839 0.839v7.951h-0.565c-0.252 0-0.457 0.204-0.457 0.457s0.204 0.457 0.457 0.457h29.563c0.252 0 0.457-0.204 0.457-0.457s-0.204-0.457-0.457-0.457zM1.935 30.268v-7.876h2.905v7.876h-2.905zM7.86 30.268v-10.844h2.906v10.844h-2.905zM13.785 30.268v-16.805h2.905v16.805h-2.905z"></path>
</symbol>
<symbol id="icon-document" viewBox="0 0 32 32">
<path fill="none" stroke-linejoin="miter" stroke-linecap="round" stroke-miterlimit="4" stroke-width="1.3333" d="M25.333 17.333v2.667c0 3.771 0 5.657-1.172 6.828s-3.057 1.172-6.828 1.172h-2.667c-3.771 0-5.657 0-6.828-1.172s-1.172-3.057-1.172-6.828v-8c0-3.771 0-5.657 1.172-6.828s3.057-1.172 6.828-1.172h1.333"></path>
<path fill="none" stroke-linejoin="miter" stroke-linecap="round" stroke-miterlimit="4" stroke-width="1.3333" d="M24 4v8"></path>
<path fill="none" stroke-linejoin="miter" stroke-linecap="round" stroke-miterlimit="4" stroke-width="1.3333" d="M28 8h-8"></path>
<path fill="none" stroke-linejoin="miter" stroke-linecap="round" stroke-miterlimit="4" stroke-width="1.3333" d="M12 17.333h8"></path>
<path fill="none" stroke-linejoin="miter" stroke-linecap="round" stroke-miterlimit="4" stroke-width="1.3333" d="M12 12h5.333"></path>
<path fill="none" stroke-linejoin="miter" stroke-linecap="round" stroke-miterlimit="4" stroke-width="1.3333" d="M12 22.667h5.333"></path>
</symbol>
<symbol id="icon-settings" viewBox="0 0 32 32">
<path fill="none" d="M0.070 2.933l2.133 3.732c0.072 0.126 0.192 0.217 0.333 0.253l1.99 0.497 6.824 6.824 0.754-0.754-6.931-6.93c-0.068-0.068-0.154-0.117-0.247-0.14l-1.912-0.48-1.816-3.179 1.557-1.557 3.18 1.817 0.48 1.912c0.023 0.094 0.072 0.18 0.14 0.248l6.931 6.931 0.754-0.754-6.824-6.824-0.497-1.988c-0.035-0.141-0.127-0.262-0.253-0.334l-3.732-2.132c-0.208-0.118-0.47-0.083-0.64 0.086l-2.132 2.133c-0.172 0.169-0.209 0.431-0.091 0.641z"></path>
<path fill="none" d="M22.235 10.507l-11.728 11.728-0.754-0.754 11.728-11.728 0.754 0.754z"></path>
<path fill="none" d="M8.454 22.65c-0.097-0.16-0.27-0.259-0.457-0.259h-3.199c-0.187 0-0.361 0.098-0.457 0.259l-1.599 2.665c-0.102 0.169-0.102 0.38 0 0.549l1.599 2.665c0.096 0.16 0.27 0.259 0.457 0.259h3.199c0.187 0 0.361-0.098 0.457-0.259l1.599-2.665c0.102-0.169 0.102-0.38 0-0.549l-1.599-2.665zM7.695 27.722h-2.595l-1.279-2.132 1.279-2.132h2.595l1.279 2.132-1.279 2.132z"></path>
<path fill="none" d="M25.589 12.796c3.521 0.012 6.385-2.833 6.397-6.354 0.002-0.536-0.064-1.070-0.196-1.589-0.071-0.286-0.36-0.46-0.646-0.389-0.094 0.023-0.18 0.072-0.248 0.14l-3.319 3.316-2.633-0.877-0.878-2.632 3.318-3.319c0.208-0.208 0.208-0.546-0-0.754-0.069-0.069-0.155-0.117-0.25-0.141-3.415-0.865-6.883 1.202-7.748 4.617-0.131 0.518-0.197 1.050-0.195 1.585 0.001 0.42 0.045 0.838 0.13 1.249l-11.675 11.675c-0.411-0.085-0.829-0.128-1.249-0.13-3.533 0-6.397 2.864-6.397 6.397s2.864 6.397 6.397 6.397c3.533 0 6.397-2.864 6.397-6.397-0.001-0.42-0.045-0.838-0.13-1.249l2.795-2.795 1.222 1.222c0.208 0.208 0.546 0.208 0.754 0l0.267-0.267c0.234-0.232 0.612-0.232 0.845 0s0.234 0.611 0.001 0.845c-0 0-0.001 0.001-0.001 0.001l-0.267 0.266c-0.208 0.208-0.208 0.546 0 0.754l6.36 6.359c1.673 1.688 4.397 1.7 6.085 0.028s1.7-4.397 0.027-6.085c-0.009-0.009-0.018-0.018-0.027-0.028l-6.359-6.359c-0.208-0.208-0.546-0.208-0.754 0l-0.267 0.266c-0.234 0.232-0.612 0.232-0.846 0s-0.234-0.611-0.001-0.844c0-0 0.001-0.001 0.001-0.001l0.267-0.267c0.208-0.208 0.208-0.546 0-0.754l-1.222-1.222 2.795-2.795c0.411 0.085 0.829 0.128 1.249 0.13zM27.684 30.921c-0.387-0.001-0.771-0.071-1.134-0.207l4.164-4.164c0.628 1.671-0.217 3.535-1.888 4.164-0.365 0.137-0.751 0.207-1.141 0.207zM21.644 17.066c-0.59 0.704-0.498 1.754 0.206 2.344 0.619 0.519 1.521 0.518 2.139-0.001l5.983 5.988c0.065 0.065 0.126 0.134 0.184 0.204l-4.558 4.558c-0.070-0.059-0.139-0.119-0.204-0.184l-5.987-5.988c0.59-0.704 0.498-1.754-0.206-2.344-0.619-0.519-1.521-0.518-2.139 0.001l-0.853-0.853 4.582-4.575 0.853 0.851zM23.797 11.704l-12.094 12.091c-0.133 0.132-0.186 0.325-0.141 0.507 0.731 2.872-1.004 5.794-3.877 6.525s-5.794-1.004-6.525-3.877c-0.731-2.872 1.004-5.794 3.877-6.525 0.869-0.221 1.779-0.221 2.648 0 0.182 0.044 0.374-0.009 0.507-0.14l12.091-12.091c0.132-0.132 0.186-0.325 0.14-0.506-0.726-2.839 0.986-5.729 3.825-6.455 0.536-0.137 1.091-0.19 1.644-0.155l-2.812 2.813c-0.143 0.143-0.193 0.354-0.129 0.545l1.066 3.199c0.053 0.159 0.178 0.284 0.338 0.337l3.199 1.066c0.191 0.064 0.402 0.014 0.545-0.129l2.812-2.812c0.006 0.102 0.010 0.202 0.010 0.303 0.015 2.929-2.347 5.316-5.277 5.331-0.453 0.002-0.904-0.053-1.343-0.166-0.182-0.045-0.374 0.008-0.507 0.14h0.003v0z"></path>
<path fill="none" d="M27.566 26.812l-0.754 0.754-5.331-5.331 0.754-0.754 5.331 5.331z"></path>
</symbol>
<symbol id="icon-shoes" viewBox="0 0 38 32">
<path fill="none" d="M36.334 23.99c-0.859-1.165-2.044-2.007-3.427-2.434l-1.595-0.493c-1.352-0.418-2.42-1.416-2.93-2.736l-4.38-11.348c-0.644-1.669-2.435-2.557-4.156-2.081-0.002 0.001 0.008-0.002 0 0-1.101 0.315-2.273 0.183-3.271-0.379s-1.715-1.479-2.018-2.584l-0.382-1.393c-0.088-0.319-0.378-0.541-0.709-0.541-2.283 0-4.484 0.83-6.196 2.337-1.609 1.417-2.682 3.334-3.046 5.43-1.294 0.595-2.234 1.733-2.573 3.161-0.401 1.686 0.126 3.387 1.41 4.55l6.963 6.312h-7.27c-0.406 0-0.735 0.329-0.735 0.735s0.329 0.735 0.735 0.735h8.893l5.827 5.283c0.817 0.741 1.718 1.367 2.678 1.87h-8.999c-0.406 0-0.735 0.329-0.735 0.735s0.329 0.735 0.735 0.735l22.574 0.019c1.045 0 2.028-0.406 2.769-1.145 0.743-0.741 1.152-1.727 1.152-2.776 0-1.448-0.454-2.828-1.313-3.993zM32.472 22.96c1.978 0.612 3.375 2.286 3.652 4.288h-5.117c-3.068 0-6.056-0.842-8.65-2.384 2.232-0.967 4.355-2.177 6.331-3.611 0.627 0.544 1.368 0.96 2.189 1.214l1.595 0.494zM22.63 7.508l0.434 1.125-1.005 0.457c-0.37 0.168-0.533 0.604-0.365 0.974 0.123 0.271 0.39 0.431 0.67 0.431 0.102 0 0.205-0.021 0.304-0.066l0.927-0.421 0.883 2.289-1.075 0.488c-0.37 0.168-0.533 0.604-0.365 0.974 0.123 0.271 0.39 0.431 0.67 0.431 0.102 0 0.205-0.021 0.304-0.066l0.997-0.453 0.912 2.363-0.707 0.321c-0.37 0.168-0.533 0.604-0.365 0.974 0.123 0.271 0.39 0.431 0.67 0.431 0.102 0 0.205-0.021 0.304-0.066l0.629-0.286 0.559 1.448c0.18 0.465 0.412 0.899 0.689 1.297-0.81 0.582-1.645 1.124-2.502 1.627l-6.488-11.2c-0.443-0.764-0.522-1.678-0.218-2.508 0.302-0.822 0.945-1.463 1.767-1.763 0.986-0.269 2.003 0.243 2.372 1.199zM7.947 3.725c1.601 0.95 2.611 2.697 2.611 4.577 0 1.242-0.44 2.442-1.223 3.39l-3.609-3.948c0.33-1.565 1.122-2.951 2.22-4.019zM35.457 29.718c-0.463 0.462-1.077 0.716-1.731 0.716-0.002 0-0.004 0-0.006 0l-7.615-0.019c-2.831-0.007-5.546-1.058-7.643-2.96l-14.412-13.066c-0.88-0.798-1.242-1.965-0.967-3.121 0.241-1.012 0.921-1.812 1.855-2.208l7.291 7.975c0.134 0.145 0.325 0.236 0.538 0.236 0.406 0 0.735-0.329 0.735-0.735 0-0.189-0.072-0.361-0.19-0.491l0.001-0.001-2.977-3.257c1.083-1.233 1.693-2.83 1.693-4.484 0-2.216-1.099-4.286-2.875-5.545 1.101-0.719 2.386-1.171 3.756-1.267l0.228 0.832c0.408 1.486 1.372 2.721 2.715 3.477 0.585 0.329 1.211 0.55 1.853 0.659-0.247 0.335-0.449 0.706-0.596 1.107-0.455 1.241-0.337 2.608 0.326 3.751l6.475 11.176c-0.982 0.516-1.991 0.98-3.023 1.39-0.847-0.632-1.64-1.345-2.362-2.136l-0.748-0.818c-0.274-0.3-0.739-0.321-1.039-0.047s-0.321 0.739-0.047 1.039l0.748 0.818c3.474 3.8 8.419 5.98 13.567 5.98h5.057c-0.117 0.373-0.323 0.715-0.608 1z"></path>
<path fill="none" d="M7.401 30.415h-5.151c-0.406 0-0.735 0.329-0.735 0.735s0.329 0.735 0.735 0.735h5.151c0.406 0 0.735-0.329 0.735-0.735s-0.329-0.735-0.735-0.735z"></path>
<path fill="none" d="M3.489 26.838c0-0.406-0.329-0.735-0.735-0.735h-2.018c-0.406 0-0.735 0.329-0.735 0.735s0.329 0.735 0.735 0.735h2.018c0.406 0 0.735-0.329 0.735-0.735z"></path>
<path fill="none" d="M10.931 27.573c0.406 0 0.735-0.329 0.735-0.735s-0.329-0.735-0.735-0.735h-4.697c-0.406 0-0.735 0.329-0.735 0.735s0.329 0.735 0.735 0.735h4.697z"></path>
<path fill="none" d="M15.004 19.717c0.406 0 0.735-0.329 0.735-0.735s-0.329-0.735-0.735-0.735-0.735 0.329-0.735 0.735c0 0.406 0.329 0.735 0.735 0.735z"></path>
</symbol>
<symbol id="icon-notification" viewBox="0 0 32 32">
<path fill="none" stroke-linejoin="miter" stroke-linecap="round" stroke-miterlimit="10" stroke-width="2.5263" d="M15.53 4.119c-4.181 0-7.579 3.398-7.579 7.579v3.651c0 0.771-0.328 1.945-0.72 2.602l-1.453 2.413c-0.897 1.491-0.278 3.145 1.364 3.701 5.444 1.819 11.318 1.819 16.762 0 1.528-0.505 2.198-2.312 1.364-3.701l-1.453-2.413c-0.379-0.657-0.707-1.832-0.707-2.602v-3.651c0-4.168-3.411-7.579-7.579-7.579z"></path>
<path fill="none" stroke-linejoin="round" stroke-linecap="round" stroke-miterlimit="10" stroke-width="2.5263" d="M17.867 4.486c-0.392-0.114-0.796-0.202-1.213-0.253-1.213-0.152-2.375-0.063-3.461 0.253 0.366-0.935 1.276-1.592 2.337-1.592s1.971 0.657 2.337 1.592z"></path>
<path fill="none" stroke-linejoin="miter" stroke-linecap="butt" stroke-miterlimit="10" stroke-width="2.5263" d="M19.32 24.519c0 2.084-1.705 3.789-3.79 3.789-1.036 0-1.996-0.429-2.678-1.111s-1.112-1.642-1.112-2.678"></path>
</symbol>
<symbol id="icon-accord" viewBox="0 0 32 32">
<path fill="none" stroke-linejoin="round" stroke-linecap="round" stroke-miterlimit="4" stroke-width="2" d="M12 29.333h8c6.667 0 9.333-2.667 9.333-9.333v-8c0-6.667-2.667-9.333-9.333-9.333h-8c-6.667 0-9.333 2.667-9.333 9.333v8c0 6.667 2.667 9.333 9.333 9.333z"></path>
<path fill="none" stroke-linejoin="round" stroke-linecap="round" stroke-miterlimit="4" stroke-width="2" d="M11.293 13.653l4.707 4.693 4.707-4.693"></path>
</symbol>
<symbol id="icon-close" viewBox="0 0 32 32">
<path d="M16 0c-8.837 0-16 7.163-16 16s7.163 16 16 16 16-7.163 16-16-7.163-16-16-16zM16 29c-7.18 0-13-5.82-13-13s5.82-13 13-13 13 5.82 13 13-5.82 13-13 13z"></path>
<path d="M21 8l-5 5-5-5-3 3 5 5-5 5 3 3 5-5 5 5 3-3-5-5 5-5z"></path>
</symbol>
</defs>
</svg>
